<svg xmlns="http://www.w3.org/2000/svg" style="display: none;">

	<symbol id="html" width="64" height="64" viewBox="0 0 32 32">
		<path d="M4.46 28.802L1.892.001h28.216l-2.57 28.797L15.982 32z" fill="#e44d26"/>
		<path d="M25.337 26.964l2.197-24.608H16v27.197z" fill="#f16529"/>
		<path d="M15.988 5.888H7.142l.953 10.682H16v-3.532h-4.674l-.323-3.617H16V5.888zM16 22.2l-.015.004-3.934-1.062-.25-2.817H8.253l.495 5.546 7.236 2 .016-.005z" fill="#ebebeb"/>
		<path d="M15.988 16.57h4.35l-.4 4.58-3.94 1.063v3.675l7.242-2.007.97-10.845H16zm8.764-9.734l.084-.948h-8.85V9.42h8.532l.07-.794z" fill="#fff"/>	
	</symbol>
	
	<symbol id="css" width="512" height="512" viewBox="0 0 512 512">
		<path fill="#264de4" d="M71.357 460.819L30.272 0h451.456l-41.129 460.746L255.724 512z"/>
		<path fill="#2965f1" d="M405.388 431.408l35.148-393.73H256v435.146z"/>
		<path fill="#ebebeb" d="M124.46 208.59l5.065 56.517H256V208.59zM119.419 150.715H256V94.197H114.281zM256 355.372l-.248.066-62.944-16.996-4.023-45.076h-56.736l7.919 88.741 115.772 32.14.26-.073z"/>
		<path fill="#fff" d="M255.805 208.59v56.517H325.4l-6.56 73.299-63.035 17.013v58.8l115.864-32.112.85-9.549 13.28-148.792 1.38-15.176 10.203-114.393H255.805v56.518h79.639L330.3 208.59z"/>
	</symbol> 

	<symbol id="sass" x="0px" y="0px" viewBox="0 0 420 420" enable-background="new 0 0 420 420" xml:space="preserve">
		<g>
			<path fill-rule="evenodd" clip-rule="evenodd" fill="#CC6699" d="M210,4.564c113.458,0,205.435,91.977,205.435,205.436 c0,113.458-91.978,205.435-205.435,205.435C96.542,415.436,4.564,323.459,4.564,210C4.564,96.542,96.542,4.564,210,4.564"/>
			<path fill="#FFFFFF" d="M338.863,92.494c-9.303-36.486-69.801-48.48-127.059-28.139c-34.075,12.106-70.965,31.106-97.488,55.916 c-31.537,29.497-36.566,55.172-34.494,65.9c7.312,37.854,59.18,62.597,80.501,80.954v0.111 c-6.287,3.095-52.303,26.384-63.072,50.191c-11.363,25.117,1.808,43.141,10.529,45.565c27.018,7.519,54.745-6.003,69.645-28.228 c14.378-21.448,13.182-49.145,6.933-62.921c8.619-2.274,18.669-3.293,31.44-1.802c36.037,4.209,43.107,26.711,41.756,36.127 c-1.352,9.418-8.91,14.596-11.438,16.158c-2.527,1.564-3.299,2.105-3.086,3.268c0.307,1.689,1.477,1.627,3.631,1.262 c2.967-0.5,18.924-7.66,19.605-25.043c0.869-22.07-20.28-46.758-57.729-46.113c-15.424,0.267-25.121,1.733-32.127,4.34 c-0.518-0.59-1.045-1.177-1.59-1.758c-23.151-24.701-65.951-42.174-64.135-75.38c0.66-12.072,4.856-43.861,82.238-82.421 c63.391-31.587,114.137-22.894,122.906-3.631c12.527,27.522-27.121,78.673-92.951,86.052c-25.081,2.812-38.288-6.909-41.573-10.529 c-3.458-3.812-3.973-3.984-5.265-3.268c-2.103,1.165-0.77,4.53,0,6.536c1.966,5.115,10.031,14.185,23.782,18.698 c12.097,3.97,41.544,6.151,77.158-7.624C316.865,171.287,348.012,128.368,338.863,92.494 M169.174,278.432 c2.988,11.056,2.661,21.366-0.427,30.703c-0.343,1.037-0.72,2.063-1.13,3.076c-0.411,1.013-0.854,2.014-1.331,3.002 c-2.381,4.939-5.575,9.563-9.488,13.832c-11.937,13.021-28.613,17.945-35.764,13.797c-7.722-4.477-3.855-22.836,9.985-37.465 c14.887-15.738,36.308-25.857,36.308-25.857l-0.032-0.064C167.911,279.123,168.538,278.781,169.174,278.432"/>
		</g>
	</symbol>
	<symbol id="javascript" fill="none" height="2500" width="2183" xmlns="http://www.w3.org/2000/svg" viewBox="0 0 124 141.53199999999998">
		<path d="M10.383 126.894L0 0l124 .255-10.979 126.639-50.553 14.638z" fill="#e9ca32"/>
		<path d="M62.468 129.277V12.085l51.064.17-9.106 104.851z" fill="#ffde25"/>
		<g fill="#fff">
		<path d="M57 26H43.5v78L33 102V91.5l-12.5-2V113l36.5 9.5zM67.127 26H104.5L102 40.95H81.394v24.533H102L99.5 115l-32.373 7.5V107L89 99.5 90.263 79l-23.136 3.35z"/></g>
	</symbol>
	<symbol id="jquery" height="64" width="64" viewBox="0 0 32 32" fill="#0868ac">
		<path d="M2.144 7.705c-2.83 4.07-2.48 9.364-.316 13.7.05.104.105.206.158.308l.1.195c.02.038.042.075.063.112.037.07.075.134.113.202l.207.354.118.194.24.375.102.158c.113.168.228.336.347.5l.068.092a16.39 16.39 0 0 0 .316.42l.12.152.292.36.112.134c.133.157.27.313.407.465.014.015.02.02.024.026a20.44 20.44 0 0 0 .414.436l.133.134.33.324.135.13a16.98 16.98 0 0 0 .453.412l.496.42.17.136.343.268.183.14.385.276.18.127c.123.085.248.166.374.247l.162.108a20.81 20.81 0 0 0 .585.358l.162.1.44.246c.08.043.162.084.243.125l.314.163.073.035.13.062.498.23.105.047a17.83 17.83 0 0 0 .581.241l.14.056.548.203.07.024a21.72 21.72 0 0 0 .61.2l.148.044c.2.063.416.14.63.178 13.694 2.497 17.67-8.23 17.67-8.23-3.34 4.352-9.27 5.5-14.9 4.222-.213-.048-.42-.114-.627-.176l-.156-.047a18.62 18.62 0 0 1-.604-.197l-.083-.03a20.87 20.87 0 0 1-.532-.197l-.15-.06a15.16 15.16 0 0 1-.575-.24l-.115-.05-.485-.226-.14-.067c-.126-.06-.25-.127-.375-.2l-.25-.13c-.152-.08-.3-.166-.45-.252l-.152-.085a21.76 21.76 0 0 1-.585-.358c-.053-.034-.105-.07-.158-.105l-.416-.277c-.046-.03-.1-.064-.134-.094l-.394-.285-.175-.132-.355-.278-.158-.127-.442-.373a.73.73 0 0 0-.05-.04l-.465-.423-.13-.126-.332-.33-.13-.13c-.14-.143-.276-.287-.4-.434-.007-.007-.014-.014-.02-.022a16.98 16.98 0 0 1-.416-.474l-.1-.13-.3-.37-.1-.137-.346-.46C2.982 15.6 1.86 9.722 4.354 4.902m6.58-.625c-2.048 2.947-1.937 6.9-.34 10.008a13.06 13.06 0 0 0 .906 1.512c.307.44.647.963 1.054 1.316.148.163.302.32.46.477l.12.12a13.41 13.41 0 0 0 .469.436c.007.005.012.012.02.017.182.16.366.3.553.458l.124.097a13.46 13.46 0 0 0 .574.419l.017.012c.086.06.174.115.262.173.042.027.082.056.124.082a11.64 11.64 0 0 0 .425.26l.06.035.376.2c.044.025.1.046.134.07l.263.136c.013.007.027.012.04.018a11.39 11.39 0 0 0 .548.255l.12.05a14.16 14.16 0 0 0 .45.182l.192.07a14.26 14.26 0 0 0 .413.143l.187.06c.197.06.4.14.597.173 10.573 1.752 13.014-6.4 13.014-6.4-2.2 3.17-6.46 4.68-11.008 3.5a13.06 13.06 0 0 1-.599-.173c-.06-.018-.12-.038-.18-.058l-.42-.144-.2-.07a15.08 15.08 0 0 1-.45-.182l-.122-.05a12.58 12.58 0 0 1-.552-.256l-.277-.14-.16-.082a13.16 13.16 0 0 1-.35-.197l-.084-.047a12.34 12.34 0 0 1-.424-.26c-.043-.027-.085-.057-.128-.085l-.275-.182a13.24 13.24 0 0 1-.57-.418l-.13-.1c-2-1.572-3.568-3.72-4.318-6.154-.786-2.525-.617-5.36.745-7.66m5.732-.183C17.12 3.5 17 5.698 17.838 7.66c.883 2.083 2.693 3.716 4.806 4.5l.262.1.116.036.377.1c5.838 1.128 7.42-2.996 7.843-3.603-1.387 1.997-3.718 2.476-6.578 1.782-.226-.055-.474-.137-.692-.214a8.46 8.46 0 0 1-.822-.341 8.5 8.5 0 0 1-1.441-.879C19.15 7.2 17.56 3.486 19.23.47"/>
	</symbol>
	<symbol id="mysql" width="191.151px" height="191.151px" viewBox="-18.458 -22.75 191.151 191.151">
		<path d="M-18.458 6.58h191.151v132.49H-18.458V6.58z" fill="none"/>
		<path d="M40.054 113.583h-5.175c-.183-8.735-.687-16.947-1.511-24.642h-.046l-7.879 24.642h-3.94l-7.832-24.642h-.045c-.581 7.388-.947 15.602-1.099 24.642H7.81c.304-10.993 1.068-21.299 2.289-30.919h6.414l7.465 22.719h.046l7.511-22.719h6.137c1.344 11.268 2.138 21.575 2.382 30.919M62.497 90.771c-2.107 11.434-4.887 19.742-8.337 24.928-2.688 3.992-5.633 5.99-8.84 5.99-.855 0-1.91-.258-3.16-.77v-2.757c.611.088 1.328.138 2.152.138 1.498 0 2.702-.412 3.62-1.238 1.098-1.006 1.647-2.137 1.647-3.388 0-.858-.428-2.612-1.282-5.268L42.618 90.77h5.084l4.076 13.19c.916 2.995 1.298 5.086 1.145 6.277 2.229-5.953 3.786-12.444 4.673-19.468h4.901v.002z" fill="#5d87a1"/>
		<path d="M131.382 113.583h-14.7V82.664h4.945v27.113h9.755v3.806zM112.834 114.33l-5.684-2.805c.504-.414.986-.862 1.42-1.381 2.416-2.838 3.621-7.035 3.621-12.594 0-10.229-4.014-15.346-12.045-15.346-3.938 0-7.01 1.298-9.207 3.895-2.414 2.84-3.619 7.022-3.619 12.551 0 5.435 1.068 9.422 3.205 11.951 1.955 2.291 4.902 3.438 8.843 3.438 1.47 0 2.819-.18 4.048-.543l7.4 4.308 2.018-3.474zm-18.413-6.934c-1.252-2.014-1.878-5.248-1.878-9.707 0-7.785 2.365-11.682 7.1-11.682 2.475 0 4.289.932 5.449 2.792 1.25 2.017 1.879 5.222 1.879 9.619 0 7.849-2.367 11.774-7.099 11.774-2.476.001-4.29-.928-5.451-2.796M85.165 105.013c0 2.622-.962 4.773-2.884 6.458-1.924 1.678-4.504 2.519-7.737 2.519-3.024 0-5.956-.966-8.794-2.888l1.329-2.655c2.442 1.223 4.653 1.831 6.638 1.831 1.863 0 3.319-.413 4.375-1.232 1.055-.822 1.684-1.975 1.684-3.433 0-1.837-1.281-3.407-3.631-4.722-2.167-1.19-6.501-3.678-6.501-3.678-2.349-1.712-3.525-3.55-3.525-6.578 0-2.506.877-4.529 2.632-6.068 1.757-1.545 4.024-2.315 6.803-2.315 2.87 0 5.479.769 7.829 2.291l-1.192 2.656c-2.01-.854-3.994-1.281-5.951-1.281-1.585 0-2.809.381-3.66 1.146-.858.762-1.387 1.737-1.387 2.933 0 1.828 1.308 3.418 3.722 4.759 2.196 1.192 6.638 3.723 6.638 3.723 2.409 1.709 3.612 3.53 3.612 6.534" fill="#f8981d"/>
		<path d="M137.59 72.308c-2.99-.076-5.305.225-7.248 1.047-.561.224-1.453.224-1.531.933.303.3.338.784.601 1.198.448.747 1.229 1.752 1.942 2.276.783.6 1.569 1.194 2.393 1.717 1.453.899 3.1 1.422 4.516 2.318.825.521 1.645 1.195 2.471 1.756.406.299.666.784 1.193.971v-.114c-.264-.336-.339-.822-.598-1.196l-1.122-1.082c-1.084-1.456-2.431-2.727-3.884-3.771-1.196-.824-3.812-1.944-4.297-3.322l-.076-.076c.822-.077 1.797-.375 2.578-.604 1.271-.335 2.43-.259 3.734-.594.6-.15 1.195-.338 1.797-.523v-.337c-.676-.673-1.158-1.567-1.869-2.203-1.902-1.643-3.998-3.25-6.164-4.595-1.16-.749-2.652-1.231-3.887-1.868-.445-.225-1.195-.336-1.457-.71-.67-.822-1.047-1.904-1.533-2.877-1.08-2.053-2.129-4.331-3.061-6.502-.674-1.456-1.084-2.91-1.906-4.257-3.85-6.35-8.031-10.196-14.457-13.971-1.381-.786-3.024-1.121-4.779-1.533l-2.803-.148c-.598-.262-1.197-.973-1.719-1.309-2.132-1.344-7.621-4.257-9.189-.411-1.01 2.431 1.494 4.821 2.354 6.054.635.856 1.458 1.83 1.902 2.802.263.635.337 1.309.6 1.98.598 1.644 1.157 3.473 1.943 5.007.41.782.857 1.604 1.381 2.312.3.414.822.597.936 1.272-.521.744-.562 1.867-.861 2.801-1.344 4.221-.819 9.45 1.086 12.552.596.934 2.018 2.99 3.92 2.202 1.684-.672 1.311-2.801 1.795-4.668.111-.451.038-.747.262-1.043v.073c.521 1.045 1.047 2.052 1.53 3.1 1.159 1.829 3.177 3.735 4.858 5.002.895.676 1.604 1.832 2.725 2.245V74.1h-.074c-.227-.335-.559-.485-.857-.745-.674-.673-1.42-1.495-1.943-2.241-1.566-2.093-2.952-4.41-4.182-6.801-.602-1.16-1.121-2.428-1.606-3.586-.226-.447-.226-1.121-.601-1.346-.562.821-1.381 1.532-1.791 2.538-.711 1.609-.785 3.588-1.049 5.646l-.147.072c-1.19-.299-1.604-1.53-2.056-2.575-1.119-2.654-1.307-6.914-.336-9.976.26-.783 1.385-3.249.936-3.995-.225-.715-.973-1.122-1.383-1.685-.482-.708-1.01-1.604-1.346-2.39-.896-2.091-1.347-4.408-2.312-6.498-.451-.974-1.234-1.982-1.868-2.879-.712-1.008-1.495-1.718-2.058-2.913-.186-.411-.447-1.083-.148-1.53.073-.3.225-.412.523-.487.484-.409 1.867.111 2.352.336 1.385.56 2.543 1.083 3.699 1.867.523.375 1.084 1.085 1.755 1.272h.786c1.193.26 2.538.072 3.661.41 1.979.636 3.772 1.569 5.38 2.576 4.893 3.103 8.928 7.512 11.652 12.778.447.858.637 1.644 1.045 2.539.787 1.832 1.76 3.7 2.541 5.493.785 1.755 1.533 3.547 2.654 5.005.559.784 2.805 1.195 3.812 1.606.745.335 1.905.633 2.577 1.044 1.271.783 2.537 1.682 3.732 2.543.595.448 2.465 1.382 2.576 2.13M99.484 39.844a5.82 5.82 0 0 0-1.529.188v.075h.072c.301.597.824 1.011 1.197 1.532.301.599.562 1.193.857 1.791l.072-.074c.527-.373.789-.971.789-1.868-.227-.264-.262-.522-.451-.784-.22-.374-.705-.56-1.007-.86" fill="#5d87a1"/>
		<path d="M141.148 113.578h.774v-3.788h-1.161l-.947 2.585-1.029-2.585h-1.118v3.788h.731v-2.882h.041l1.078 2.882h.557l1.074-2.882v2.882zm-6.235 0h.819v-3.146h1.072v-.643h-3.008v.643h1.115l.002 3.146z" fill="#f8981d"/>
	</symbol>

	<symbol id="php" >
		
	</symbol>

	<symbol id="react" width="512px" height="512px" viewBox="0 0 512 512">
		<path d="M410.66,180.72h0q-7.67-2.62-15.45-4.88,1.29-5.25,2.38-10.56c11.7-56.9,4.05-102.74-22.06-117.83-25-14.48-66,.61-107.36,36.69q-6.1,5.34-11.95,11-3.9-3.76-8-7.36c-43.35-38.58-86.8-54.83-112.88-39.69-25,14.51-32.43,57.6-21.9,111.53q1.58,8,3.55,15.93c-6.15,1.75-12.09,3.62-17.77,5.6C48.46,198.9,16,226.73,16,255.59c0,29.82,34.84,59.72,87.77,77.85q6.44,2.19,13,4.07Q114.64,346,113,354.68c-10,53-2.2,95.07,22.75,109.49,25.77,14.89,69-.41,111.14-37.31q5-4.38,10-9.25,6.32,6.11,13,11.86c40.8,35.18,81.09,49.39,106,34.93,25.75-14.94,34.12-60.14,23.25-115.13q-1.25-6.3-2.88-12.86,4.56-1.35,8.93-2.79c55-18.27,90.83-47.81,90.83-78C496,226.62,462.5,198.61,410.66,180.72Zm-129-81.08c35.43-30.91,68.55-43.11,83.65-34.39h0c16.07,9.29,22.32,46.75,12.22,95.88q-1,4.8-2.16,9.57a487.83,487.83,0,0,0-64.18-10.16,481.27,481.27,0,0,0-40.57-50.75Q276,104.57,281.64,99.64ZM157.73,280.25q6.51,12.6,13.61,24.89,7.23,12.54,15.07,24.71a435.28,435.28,0,0,1-44.24-7.13C146.41,309,151.63,294.75,157.73,280.25Zm0-48.33c-6-14.19-11.08-28.15-15.25-41.63,13.7-3.07,28.3-5.58,43.52-7.48q-7.65,11.94-14.72,24.23T157.7,231.92Zm10.9,24.17q9.48-19.77,20.42-38.78h0q10.93-19,23.27-37.13c14.28-1.08,28.92-1.65,43.71-1.65s29.52.57,43.79,1.66q12.21,18.09,23.13,37t20.69,38.6Q334,275.63,323,294.73h0q-10.91,19-23,37.24c-14.25,1-29,1.55-44,1.55s-29.47-.47-43.46-1.38q-12.43-18.19-23.46-37.29T168.6,256.09ZM340.75,305q7.25-12.58,13.92-25.49h0a440.41,440.41,0,0,1,16.12,42.32A434.44,434.44,0,0,1,326,329.48Q333.62,317.39,340.75,305Zm13.72-73.07q-6.64-12.65-13.81-25h0q-7-12.18-14.59-24.06c15.31,1.94,30,4.52,43.77,7.67A439.89,439.89,0,0,1,354.47,231.93ZM256.23,124.48h0a439.75,439.75,0,0,1,28.25,34.18q-28.35-1.35-56.74,0C237.07,146.32,246.62,134.87,256.23,124.48ZM145.66,65.86c16.06-9.32,51.57,4,89,37.27,2.39,2.13,4.8,4.36,7.2,6.67A491.37,491.37,0,0,0,201,160.51a499.12,499.12,0,0,0-64.06,10q-1.83-7.36-3.3-14.82h0C124.59,109.46,130.58,74.61,145.66,65.86ZM122.25,317.71q-6-1.71-11.85-3.71c-23.4-8-42.73-18.44-56-29.81C42.52,274,36.5,263.83,36.5,255.59c0-17.51,26.06-39.85,69.52-55q8.19-2.85,16.52-5.21a493.54,493.54,0,0,0,23.4,60.75A502.46,502.46,0,0,0,122.25,317.71Zm111.13,93.67c-18.63,16.32-37.29,27.89-53.74,33.72h0c-14.78,5.23-26.55,5.38-33.66,1.27-15.14-8.75-21.44-42.54-12.85-87.86q1.53-8,3.5-16a480.85,480.85,0,0,0,64.69,9.39,501.2,501.2,0,0,0,41.2,51C239.54,405.83,236.49,408.65,233.38,411.38Zm23.42-23.22c-9.72-10.51-19.42-22.14-28.88-34.64q13.79.54,28.08.54c9.78,0,19.46-.21,29-.64A439.33,439.33,0,0,1,256.8,388.16Zm124.52,28.59c-2.86,15.44-8.61,25.74-15.72,29.86-15.13,8.78-47.48-2.63-82.36-32.72-4-3.44-8-7.13-12.07-11a484.54,484.54,0,0,0,40.23-51.2,477.84,477.84,0,0,0,65-10.05q1.47,5.94,2.6,11.64h0C383.81,377.58,384.5,399.56,381.32,416.75Zm17.4-102.64h0c-2.62.87-5.32,1.71-8.06,2.53a483.26,483.26,0,0,0-24.31-60.94,481.52,481.52,0,0,0,23.36-60.06c4.91,1.43,9.68,2.93,14.27,4.52,44.42,15.32,71.52,38,71.52,55.43C475.5,274.19,446.23,298.33,398.72,314.11Z"/>
		<path d="M256,298.55a43,43,0,1,0-42.86-43A42.91,42.91,0,0,0,256,298.55Z"/>
		
	</symbol>

	<symbol id="netmatters" x="0px" y="0px" width="100%" viewBox="0 0 158 158" enable-background="new 0 0 158 158" xml:space="preserve">
		<path fill="#9571B2" opacity="1.000000" stroke="none" d="M1.000000,81.000000 C1.000000,79.933434 1.000000,78.866859 1.261436,77.111290 C2.007652,74.003143 2.581267,71.597954 2.963726,69.162735 C7.773194,38.539616 24.833580,17.771702 53.723328,6.967425 C61.182812,4.177703 69.225311,2.946907 77.000000,1.000000 C78.066566,1.000000 79.133141,1.000000 80.856308,1.294539 C85.726166,2.386050 89.937302,3.194474 94.153053,3.978048 C114.197792,7.703726 130.296661,17.957752 141.955612,34.475811 C153.502670,50.835342 159.018723,69.056755 156.074829,89.384308 C153.854279,104.717056 148.583862,118.832176 138.128326,130.251022 C119.828659,150.236694 97.297264,159.636154 69.719559,156.383133 C36.799641,152.499969 9.310697,127.109383 3.622120,94.414803 C2.841278,89.926987 1.878529,85.470818 1.000000,81.000000 M103.036354,22.410830 C86.194458,15.815129 69.629005,15.643247 53.023617,23.635878 C27.396627,35.970852 13.242240,62.963177 18.130972,91.040581 C22.782393,117.755035 46.943985,139.773346 73.690880,142.000336 C103.648819,144.494659 135.891403,123.503220 141.086319,88.803398 C145.187256,61.410976 128.910767,33.028652 103.036354,22.410830 z"/>
		<path fill="#FDFCFD" opacity="1.000000" stroke="none" d="M1.000000,81.468658 C1.878529,85.470818 2.841278,89.926987 3.622120,94.414803 C9.310697,127.109383 36.799641,152.499969 69.719559,156.383133 C97.297264,159.636154 119.828659,150.236694 138.128326,130.251022 C148.583862,118.832176 153.854279,104.717056 156.074829,89.384308 C159.018723,69.056755 153.502670,50.835342 141.955612,34.475811 C130.296661,17.957752 114.197792,7.703726 94.153053,3.978048 C89.937302,3.194474 85.726166,2.386050 81.256454,1.294539 C106.975883,1.000000 132.951767,1.000000 158.963821,1.000000 C158.963821,53.593674 158.963821,106.187378 158.963821,158.890533 C106.455368,158.890533 53.910423,158.890533 1.000000,158.890533 C1.000000,133.313599 1.000000,107.625458 1.000000,81.468658 z"/>
		<path fill="#FDFCFD" opacity="1.000000" stroke="none" d="M76.531342,1.000000 C69.225311,2.946907 61.182812,4.177703 53.723328,6.967425 C24.833580,17.771702 7.773194,38.539616 2.963726,69.162735 C2.581267,71.597954 2.007652,74.003143 1.261436,76.711143 C1.000000,51.739792 1.000000,26.479588 1.000000,1.000000 C26.020468,1.000000 51.041576,1.000000 76.531342,1.000000 z"/>
		<path fill="#FCFCFD" opacity="1.000000" stroke="none" d="M103.385040,22.572208 C128.910767,33.028652 145.187256,61.410976 141.086319,88.803398 C135.891403,123.503220 103.648819,144.494659 73.690880,142.000336 C46.943985,139.773346 22.782393,117.755035 18.130972,91.040581 C13.242240,62.963177 27.396627,35.970852 53.023617,23.635878 C69.629005,15.643247 86.194458,15.815129 103.385040,22.572208 M42.257854,62.880508 C39.687248,76.379211 37.116642,89.877914 34.420586,104.035370 C38.663723,104.035370 41.795174,104.036980 44.926620,104.035049 C52.778320,104.030205 52.786671,104.031281 54.352089,96.427551 C54.953011,93.508675 55.235153,90.493462 56.135220,87.672989 C58.285347,80.935318 60.242958,74.057220 63.313202,67.738693 C64.275406,65.758499 68.538536,65.382263 71.290733,64.271851 C72.259453,66.868141 74.005585,69.462608 74.011703,72.061165 C74.020523,75.806030 72.742577,79.549713 72.054398,83.301361 C70.816910,90.047615 69.609619,96.799408 68.345963,103.790886 C74.985779,103.790886 80.754990,103.790886 87.116959,103.790886 C89.399040,91.134262 92.075447,78.659645 93.773926,66.053276 C94.942078,57.383163 90.493858,50.766567 83.950020,49.906956 C76.795448,48.967125 69.992912,49.991688 64.408798,55.206001 C63.288071,56.252510 62.077686,57.203018 60.199417,58.801289 C60.199417,55.539124 60.199417,53.448456 60.199417,50.987930 C58.365452,50.907658 56.739620,50.754826 55.116344,50.778290 C41.377609,50.976887 45.187401,48.922825 42.257854,62.880508 M109.871231,49.779819 C98.173195,52.310162 96.765717,54.101849 98.448761,64.320366 C106.325157,63.174683 108.410858,65.067169 107.790642,72.856712 C107.712349,73.840057 107.418701,74.806129 107.226585,75.780556 C105.407379,85.007484 103.588570,94.234489 101.710335,103.762329 C107.984505,103.762329 113.735092,103.762329 119.926369,103.762329 C122.115654,91.910927 124.193024,80.241402 126.442108,68.605064 C128.874084,56.022369 123.555023,49.555592 109.871231,49.779819 z"/>
		<path fill="#9470B1" opacity="1.000000" stroke="none" d="M42.365860,62.462460 C45.187401,48.922825 41.377609,50.976887 55.116344,50.778290 C56.739620,50.754826 58.365452,50.907658 60.199417,50.987930 C60.199417,53.448456 60.199417,55.539124 60.199417,58.801289 C62.077686,57.203018 63.288071,56.252510 64.408798,55.206001 C69.992912,49.991688 76.795448,48.967125 83.950020,49.906956 C90.493858,50.766567 94.942078,57.383163 93.773926,66.053276 C92.075447,78.659645 89.399040,91.134262 87.116959,103.790886 C80.754990,103.790886 74.985779,103.790886 68.345963,103.790886 C69.609619,96.799408 70.816910,90.047615 72.054398,83.301361 C72.742577,79.549713 74.020523,75.806030 74.011703,72.061165 C74.005585,69.462608 72.259453,66.868141 71.290733,64.271851 C68.538536,65.382263 64.275406,65.758499 63.313202,67.738693 C60.242958,74.057220 58.285347,80.935318 56.135220,87.672989 C55.235153,90.493462 54.953011,93.508675 54.352089,96.427551 C52.786671,104.031281 52.778320,104.030205 44.926620,104.035049 C41.795174,104.036980 38.663723,104.035370 34.420586,104.035370 C37.116642,89.877914 39.687248,76.379211 42.365860,62.462460 z"/>
		<path fill="#717075" opacity="1.000000" stroke="none" d="M110.315819,49.774128 C123.555023,49.555592 128.874084,56.022369 126.442108,68.605064 C124.193024,80.241402 122.115654,91.910927 119.926369,103.762329 C113.735092,103.762329 107.984505,103.762329 101.710335,103.762329 C103.588570,94.234489 105.407379,85.007484 107.226585,75.780556 C107.418701,74.806129 107.712349,73.840057 107.790642,72.856712 C108.410858,65.067169 106.325157,63.174683 98.448761,64.320366 C96.765717,54.101849 98.173195,52.310162 110.315819,49.774128 z"/>
	</symbol>

	<symbol id="treehouse" height="64" width="64" preserveAspectRatio="xMinYMin meet">
		<path d="M58.758 14.128l-4.593-2.396c-2.197-1.198-5.59.8-7.788 4.193l-3.794 6.4c-1.398 2.796-1.198 5.79.6 8.387l.2.2c1.797 2.596 4.193 4.793 4.793 5.59.4.4.8 1.198.998 1.797.6 2.396-.6 4.593-2.995 5.192-2.197.6-4.593-.8-5.392-2.995-.2-.6-.2-1.198-.2-1.797.2-.998-.2-2.596-1.598-3.794-1.398-1.598-4.193 1.398-4.992 4.193v.2L32.8 44.88c0 .2.2.4.2.4 1.198 2.396.4 5.192-1.997 6.4s-5.392.4-6.6-1.997-.4-5.192 1.997-6.4c.2 0 .2-.2.4-.2s.6-1.398 1.198-2.796l.8-2.596c0-.2 0-.4.2-.4l2.396-8.387-2.396 4.992c-.4-.998-.8-.998-1.997-.2-.6.4-1.797 1.398-2.197 1.797-.998.8-1.797 2.197-2.197 2.995-.2.6-.6.998-.998 1.398-1.797 1.598-4.593 1.198-5.99-.6s-.998-4.193.8-5.59c.6-.4 1.198-.8 1.797-.8.998-.2 4.793-2.596 6.99-3.994.4-.2.8-.6.998-.8L32 23.913l-5.192 2.796H25.6c-1.598.2-3.594.4-3.994.998-.2.2-.4.6-.8.8-1.598.8-3.994.4-5.392-1.198-1.198-1.797-.8-3.994.8-5.192.998-.6 1.797-.8 2.596-.8 1.398 0 4.992.8 7.988.2l.8-.2c2.995-.6 6.6-2.995 7.988-5.79l3.195-5.392c1.797-2.995 1.598-6.2-.2-7.388L35.195.75c-1.797-.998-4.593-.998-6.4 0L5.242 13.73c-1.797.998-3.195 3.594-3.195 5.59v25.56c0 1.997 1.398 4.193 3.195 5.192l23.763 13.18c1.797.998 4.593.998 6.4 0l23.363-13.38c1.797-.998 3.195-3.195 3.195-5.192V19.32c0-1.997-1.398-4.193-3.195-5.192z" fill="#69c773"/>
	</symbol>

</svg>